{"asset":{"version":"2.0","generator":"THREE.GLTFExporter"},"scenes":[{"name":"AuxScene","nodes":[0]}],"scene":0,"nodes":[{"mesh":0}],"bufferViews":[{"buffer":0,"byteOffset":0,"byteLength":12708,"target":34962,"byteStride":12},{"buffer":0,"byteOffset":12708,"byteLength":12708,"target":34962,"byteStride":12}],"buffers":[{"byteLength":25416,"uri":"data:application/octet-stream;base64,"}],"accessors":[{"bufferView":0,"componentType":5126,"count":1059,"max":[17.80880355834961,8.711686134338379,21.02243995666504],"min":[-28.19119644165039,-3.2883141040802,-28.277563095092773],"type":"VEC3"},{"bufferView":1,"componentType":5126,"count":1059,"max":[0.9263696074485779,1,0.7664007544517517],"min":[-0.7840654850006104,0.010745428502559662,-0.9969383478164673],"type":"VEC3"}],"materials":[{"pbrMetallicRoughness":{"baseColorFactor":[0.5019607843137255,0.5019607843137255,0.5019607843137255,1],"metallicFactor":0,"roughnessFactor":1}}],"meshes":[{"primitives":[{"mode":4,"attributes":{"POSITION":0,"NORMAL":1},"material":0}]}]}